<svg width="16" height="17" viewBox="0 0 16 17" fill="none" xmlns="http://www.w3.org/2000/svg">
<g clipPath="url(#clip0_2842_6951)">
<path d="M3.90913 4.00741H4.13804C4.48592 4.00741 4.76791 3.72532 4.76791 3.37754V1.63937V0.989212C4.76791 0.641432 4.48592 0.359375 4.13804 0.359375H3.90913C3.56129 0.359375 3.2793 0.641432 3.2793 0.989212V1.63941V3.37754C3.2793 3.72532 3.56129 4.00741 3.90913 4.00741Z" fill="#333333"/>
<path d="M11.9893 3.99179H12.2182C12.566 3.99179 12.848 3.70973 12.848 3.36192V1.47439V0.973554C12.848 0.625807 12.566 0.34375 12.2182 0.34375H11.9893C11.6414 0.34375 11.3594 0.625807 11.3594 0.973554V1.47439V3.36189C11.3594 3.70973 11.6414 3.99179 11.9893 3.99179Z" fill="#333333"/>
<path d="M14.9761 1.64062H13.3595V3.52812C13.3595 4.15776 12.8473 4.50505 12.2177 4.50505H11.9888C11.3592 4.50505 10.847 3.9928 10.847 3.36316V1.64062H5.28063V3.37876C5.28063 4.0084 4.76842 4.52065 4.13878 4.52065H3.90987C3.28027 4.52065 2.76805 4.0084 2.76805 3.37876V1.64062H1.02397C0.459362 1.64062 0 2.09999 0 2.66463V15.038C0 15.6026 0.459362 16.062 1.02397 16.062H14.9761C15.5407 16.062 16 15.6026 16 15.038V2.66463C16.0001 2.10002 15.5407 1.64062 14.9761 1.64062ZM14.9761 15.038H1.024L1.02397 5.69395H14.9763L14.9768 15.038C14.9767 15.038 14.9765 15.038 14.9761 15.038Z" fill="#333333"/>
<path d="M8.52846 8.82477H10.3671C10.4399 8.82477 10.499 8.76568 10.499 8.6928V7.10072C10.499 7.02784 10.4399 6.96875 10.3671 6.96875H8.52846C8.45557 6.96875 8.39648 7.02784 8.39648 7.10072V8.6928C8.39648 8.76568 8.45557 8.82477 8.52846 8.82477Z" fill="#333333"/>
<path d="M11.5285 8.82477H13.3671C13.4399 8.82477 13.499 8.76568 13.499 8.6928V7.10072C13.499 7.02784 13.4399 6.96875 13.3671 6.96875H11.5285C11.4556 6.96875 11.3965 7.02784 11.3965 7.10072V8.6928C11.3965 8.76568 11.4556 8.82477 11.5285 8.82477Z" fill="#333333"/>
<path d="M2.52846 11.4342H4.36703C4.43991 11.4342 4.499 11.3751 4.499 11.3022V9.7101C4.499 9.63722 4.43991 9.57812 4.36703 9.57812H2.52846C2.45557 9.57812 2.39648 9.63722 2.39648 9.7101V11.3022C2.39648 11.3751 2.45557 11.4342 2.52846 11.4342Z" fill="#333333"/>
<path d="M5.52846 11.4342H7.36703C7.43991 11.4342 7.499 11.3751 7.499 11.3022V9.7101C7.499 9.63722 7.43991 9.57812 7.36703 9.57812H5.52846C5.45557 9.57812 5.39648 9.63722 5.39648 9.7101V11.3022C5.39648 11.3751 5.45557 11.4342 5.52846 11.4342Z" fill="#333333"/>
<path d="M8.52846 11.4342H10.367C10.4399 11.4342 10.499 11.3751 10.499 11.3022V9.7101C10.499 9.63722 10.4399 9.57812 10.367 9.57812H8.52846C8.45557 9.57812 8.39648 9.63722 8.39648 9.7101V11.3022C8.39648 11.3751 8.45557 11.4342 8.52846 11.4342Z" fill="#333333"/>
<path d="M11.5285 11.4342H13.3671C13.4399 11.4342 13.499 11.3751 13.499 11.3022V9.7101C13.499 9.63722 13.4399 9.57812 13.3671 9.57812H11.5285C11.4556 9.57812 11.3965 9.63722 11.3965 9.7101V11.3022C11.3965 11.3751 11.4556 11.4342 11.5285 11.4342Z" fill="#333333"/>
<path d="M4.36699 12.1875H2.52846C2.45557 12.1875 2.39648 12.2466 2.39648 12.3195V13.9116C2.39648 13.9845 2.45557 14.0436 2.52846 14.0436H4.36703C4.43991 14.0436 4.499 13.9845 4.499 13.9116V12.3195C4.49896 12.2466 4.43987 12.1875 4.36699 12.1875Z" fill="#333333"/>
<path d="M7.36703 12.1875H5.52846C5.45557 12.1875 5.39648 12.2466 5.39648 12.3195V13.9116C5.39648 13.9845 5.45557 14.0436 5.52846 14.0436H7.36703C7.43991 14.0436 7.499 13.9845 7.499 13.9116V12.3195C7.499 12.2466 7.43991 12.1875 7.36703 12.1875Z" fill="#333333"/>
<path d="M10.3671 12.1875H8.52846C8.45557 12.1875 8.39648 12.2466 8.39648 12.3195V13.9116C8.39648 13.9845 8.45557 14.0436 8.52846 14.0436H10.3671C10.4399 14.0436 10.499 13.9845 10.499 13.9116V12.3195C10.499 12.2466 10.4399 12.1875 10.3671 12.1875Z" fill="#333333"/>
<path d="M13.3671 12.1875H11.5285C11.4556 12.1875 11.3965 12.2466 11.3965 12.3195V13.9116C11.3965 13.9845 11.4556 14.0436 11.5285 14.0436H13.3671C13.4399 14.0436 13.499 13.9845 13.499 13.9116V12.3195C13.499 12.2466 13.4399 12.1875 13.3671 12.1875Z" fill="#333333"/>
</g>
<defs>
<clipPath id="clip0_2842_6951">
<rect width="16" height="16" fill="white" transform="translate(0 0.203125)"/>
</clipPath>
</defs>
</svg>
