<svg width="21" height="21" viewBox="0 0 21 21" fill="none" xmlns="http://www.w3.org/2000/svg">
<g clipPath="url(#clip0_2843_9643)">
<path d="M12.1858 8.2179C11.8257 7.62653 11.1981 7.27344 10.5068 7.27344C9.95306 7.27344 9.4409 7.49744 9.06467 7.90422C8.72826 8.26793 8.54297 8.74138 8.54297 9.23727C8.54297 10.3202 9.42398 11.2011 10.5068 11.2011C11.5897 11.2011 12.4707 10.3201 12.4707 9.23727C12.4707 9.03567 12.4404 8.83707 12.3806 8.64704C12.3334 8.49704 12.2678 8.35267 12.1858 8.2179Z" fill="#333333"/>
<path d="M11.0065 12.4766H10.0086C8.92339 12.4766 7.92626 13.0223 7.34131 13.9363C7.01453 14.4469 6.8418 15.0371 6.8418 15.6434V17.8308H14.1733V15.6434C14.1733 15.0372 14.0006 14.4469 13.6738 13.9363C13.0888 13.0223 12.0917 12.4766 11.0065 12.4766Z" fill="#333333"/>
<path d="M6.71041 8.90066C8.23243 8.26978 8.95484 6.52451 8.32396 5.00249C7.69308 3.48047 5.94781 2.75806 4.42578 3.38894C2.90376 4.01982 2.18135 5.76509 2.81223 7.28711C3.44311 8.80913 5.18839 9.53155 6.71041 8.90066Z" fill="#333333"/>
<path d="M5.60659 15.6428C5.60659 14.8001 5.84669 13.9795 6.30095 13.2698C6.79651 12.4955 7.50503 11.9119 8.32415 11.5737C7.80562 11.0885 7.4487 10.4332 7.3423 9.69787C6.874 10.1035 6.31408 10.363 5.56644 10.363C4.61671 10.363 3.7394 10.0473 3.03359 9.51562C2.12499 9.9017 1.33931 10.5554 0.787088 11.4183C0.272177 12.2228 0 13.1529 0 14.1082V16.5395H5.60659V15.6428Z" fill="#333333"/>
<path d="M17.5408 8.25709C18.7054 7.09251 18.7054 5.20436 17.5408 4.03979C16.3762 2.87521 14.4881 2.87521 13.3235 4.03978C12.1589 5.20436 12.1589 7.09251 13.3235 8.25709C14.4881 9.42167 16.3762 9.42167 17.5408 8.25709Z" fill="#333333"/>
<path d="M20.2132 11.4183C19.661 10.5555 18.8753 9.90174 17.9667 9.51562C17.2609 10.0474 16.3836 10.363 15.4339 10.363C14.69 10.363 14.1381 10.0834 13.6786 9.65781C13.5795 10.4094 13.2193 11.0798 12.6914 11.5737C13.5105 11.9119 14.2191 12.4956 14.7146 13.2699C15.1689 13.9797 15.409 14.8002 15.409 15.6428V16.5395H21.0003V14.1082C21.0003 13.153 20.7281 12.2229 20.2132 11.4183Z" fill="#333333"/>
</g>
<defs>
<clipPath id="clip0_2843_9643">
<rect width="21" height="21" fill="white"/>
</clipPath>
</defs>
</svg>
