<svg width="17" height="17" viewBox="0 0 17 17" fill="none" xmlns="http://www.w3.org/2000/svg">
<g clipPath="url(#clip0_2842_6978)">
<path d="M10.6249 9.20819C10.2332 9.20819 9.91661 9.52557 9.91661 9.91648V12.7499C9.91661 13.1401 9.59923 13.4581 9.20819 13.4581H7.08322V2.83326C7.08322 2.22835 6.69788 1.68789 6.11852 1.48673L5.9088 1.41657H9.20819C9.59923 1.41657 9.91661 1.73459 9.91661 2.12498V4.24996C9.91661 4.64087 10.2332 4.95824 10.6249 4.95824C11.0166 4.95824 11.3332 4.64087 11.3332 4.24996V2.12498C11.3332 0.953412 10.3798 0 9.20819 0H1.59373C1.56676 0 1.54419 0.012062 1.51799 0.0155638C1.48388 0.0127104 1.45132 0 1.4167 0C0.635392 0 0 0.635262 0 1.41657V14.1664C0 14.7713 0.385334 15.3118 0.964696 15.513L5.22749 16.9339C5.37198 16.9785 5.51568 16.9998 5.66665 16.9998C6.44795 16.9998 7.08322 16.3644 7.08322 15.5831V14.8748H9.20819C10.3798 14.8748 11.3332 13.9214 11.3332 12.7499V9.91648C11.3332 9.52557 11.0166 9.20819 10.6249 9.20819Z" fill="#333333"/>
<path d="M16.7931 6.58005L13.9597 3.74679C13.7572 3.54421 13.4526 3.48325 13.1877 3.59297C12.9235 3.70283 12.7507 3.96132 12.7507 4.24756V6.37254H9.9174C9.52636 6.37254 9.20898 6.68978 9.20898 7.08082C9.20898 7.47186 9.52636 7.7891 9.9174 7.7891H12.7507V9.91408C12.7507 10.2003 12.9235 10.4588 13.1877 10.5687C13.4526 10.6784 13.7572 10.6174 13.9597 10.415L16.7931 7.58159C17.07 7.30468 17.07 6.85696 16.7931 6.58005Z" fill="#333333"/>
</g>
<defs>
<clipPath id="clip0_2842_6978">
<rect width="17" height="17" fill="white"/>
</clipPath>
</defs>
</svg>
