<svg width="18" height="18" viewBox="0 0 18 18" fill="none" xmlns="http://www.w3.org/2000/svg">
<path d="M15.75 1.125H2.25C1.31962 1.125 0.5625 1.88212 0.5625 2.8125V11.8125C0.5625 12.7429 1.31962 13.5 2.25 13.5H3.9375V16.3125C3.9375 16.5291 4.06181 16.7254 4.25588 16.8193C4.33406 16.8564 4.41731 16.875 4.5 16.875C4.62544 16.875 4.74975 16.8334 4.85156 16.7518L8.91619 13.5H15.75C16.6804 13.5 17.4375 12.7429 17.4375 11.8125V2.8125C17.4375 1.88212 16.6804 1.125 15.75 1.125ZM9 9H4.5C4.18894 9 3.9375 8.748 3.9375 8.4375C3.9375 8.127 4.18894 7.875 4.5 7.875H9C9.31106 7.875 9.5625 8.127 9.5625 8.4375C9.5625 8.748 9.31106 9 9 9ZM13.5 6.75H4.5C4.18894 6.75 3.9375 6.498 3.9375 6.1875C3.9375 5.877 4.18894 5.625 4.5 5.625H13.5C13.8111 5.625 14.0625 5.877 14.0625 6.1875C14.0625 6.498 13.8111 6.75 13.5 6.75Z" fill="#333333"/>
</svg>
