<svg width="16" height="16" viewBox="0 0 16 16" fill="none" xmlns="http://www.w3.org/2000/svg">
<g clipPath="url(#clip0_2842_7268)">
<path d="M6.16663 0H1.16663C0.523315 0 0 0.523315 0 1.16663V4.16663C0 4.81006 0.523315 5.33337 1.16663 5.33337H6.16663C6.81006 5.33337 7.33337 4.81006 7.33337 4.16663V1.16663C7.33337 0.523315 6.81006 0 6.16663 0Z" fill="#333333"/>
<path d="M6.16663 6.66406H1.16663C0.523315 6.66406 0 7.18738 0 7.83081V14.8308C0 15.4741 0.523315 15.9974 1.16663 15.9974H6.16663C6.81006 15.9974 7.33337 15.4741 7.33337 14.8308V7.83081C7.33337 7.18738 6.81006 6.66406 6.16663 6.66406Z" fill="#333333"/>
<path d="M14.8328 10.6641H9.83276C9.18933 10.6641 8.66602 11.1874 8.66602 11.8308V14.8308C8.66602 15.4741 9.18933 15.9974 9.83276 15.9974H14.8328C15.4761 15.9974 15.9994 15.4741 15.9994 14.8308V11.8308C15.9994 11.1874 15.4761 10.6641 14.8328 10.6641Z" fill="#333333"/>
<path d="M14.8328 0H9.83276C9.18933 0 8.66602 0.523315 8.66602 1.16663V8.16663C8.66602 8.81006 9.18933 9.33337 9.83276 9.33337H14.8328C15.4761 9.33337 15.9994 8.81006 15.9994 8.16663V1.16663C15.9994 0.523315 15.4761 0 14.8328 0Z" fill="#333333"/>
</g>
<defs>
<clipPath id="clip0_2842_7268">
<rect width="16" height="16" fill="white"/>
</clipPath>
</defs>
</svg>
