<svg width="19" height="19" viewBox="0 0 19 19" fill="none" xmlns="http://www.w3.org/2000/svg">
<path d="M10.0588 1.58622C10.4943 1.57831 10.9067 1.73585 11.2147 2.03747C11.5242 2.3296 11.6897 2.73414 11.6897 3.16164C11.6897 4.03247 12.4101 4.73785 13.3055 4.73785C13.5818 4.73785 13.8588 4.65789 14.1051 4.5233C14.8722 4.11085 15.8301 4.37289 16.2655 5.10914L16.8046 6.03539C16.9392 6.27289 17.0176 6.54205 17.0176 6.81914C17.0176 7.38122 16.7096 7.90451 16.2109 8.1808C15.9647 8.31539 15.7588 8.52122 15.6171 8.75951C15.1968 9.50289 15.4588 10.4442 16.2109 10.8733C16.9701 11.3079 17.2313 12.2587 16.8046 13.01L16.2655 13.9053C15.9805 14.3954 15.4501 14.697 14.8801 14.697C14.5951 14.697 14.3101 14.625 14.0734 14.4825C13.8193 14.3479 13.543 14.2687 13.2651 14.2687C12.8376 14.2687 12.4259 14.4358 12.1259 14.7358C11.8163 15.0295 11.6501 15.4325 11.6501 15.8521C11.6501 16.715 10.9305 17.4196 10.0351 17.4196H8.9513C8.52301 17.4196 8.11926 17.2454 7.82634 16.9525C7.52551 16.6516 7.36797 16.2558 7.36797 15.8441C7.36797 14.9733 6.65468 14.2687 5.76088 14.2687C5.46717 14.2687 5.18217 14.3479 4.93676 14.4991C4.56467 14.7041 4.12134 14.7596 3.70967 14.6566C3.29801 14.5458 2.94176 14.2766 2.72801 13.9204L2.22213 13.0258C1.98384 12.6545 1.91259 12.2104 2.02422 11.7908C2.13426 11.3712 2.42005 11.015 2.80717 10.8012C3.05338 10.6666 3.25842 10.4687 3.40092 10.2233C3.81338 9.47914 3.55134 8.54497 2.80717 8.10955C2.05509 7.68205 1.79384 6.73997 2.22213 5.9958L2.72801 5.10914C2.94176 4.73785 3.29801 4.46789 3.71759 4.35705C4.13797 4.24622 4.58051 4.30876 4.95259 4.5233C5.20592 4.65789 5.48301 4.72914 5.76088 4.72914C6.18838 4.72914 6.59926 4.56289 6.90009 4.26997C7.20092 3.97705 7.36797 3.5733 7.36797 3.16164C7.36797 2.29081 8.08759 1.58622 8.98217 1.58622H10.0588ZM10.3763 7.50868C9.54505 7.16747 8.58634 7.34955 7.94509 7.97497C7.31176 8.59247 7.11384 9.53455 7.46217 10.3428C7.80338 11.1575 8.61009 11.6879 9.51259 11.6879H9.5213C10.1151 11.6958 10.6692 11.467 11.088 11.0546C11.5076 10.6508 11.7451 10.0966 11.7451 9.51872C11.753 8.63997 11.2068 7.84039 10.3763 7.50868Z" fill="#333333"/>
</svg>
