<svg width="21" height="21" viewBox="0 0 21 21" fill="none" xmlns="http://www.w3.org/2000/svg">
<path d="M6.72061 19.9501C7.01188 19.9501 7.31008 19.9484 7.61479 19.9484H13.3829C13.6872 19.9484 13.9854 19.9501 14.2766 19.9501C16.9455 19.9501 18.9848 19.8136 18.9848 17.0235C18.9848 14.1033 16.7515 11.7059 13.8993 11.4453C13.8766 12.467 10.4998 14.9882 10.4998 14.9882C10.4998 14.9882 7.12213 12.4672 7.09924 11.4455C4.24744 11.7059 2.01367 14.1033 2.01367 17.0235C2.01367 19.8136 4.05214 19.9501 6.72061 19.9501ZM13.0191 16.1401C13.0191 16.0569 13.0941 15.9899 13.1874 15.9899H14.0996V15.0781C14.0996 14.9857 14.1662 14.9099 14.2493 14.9099H15.1496C15.2323 14.9099 15.2993 14.9851 15.2993 15.0781V15.9901H16.2111C16.3035 15.9901 16.3791 16.0571 16.3791 16.1403V17.0401C16.3791 17.1233 16.3042 17.1903 16.2111 17.1903H15.2991V18.1021C15.2991 18.1949 15.2319 18.2701 15.149 18.2701H14.2491C14.166 18.2701 14.099 18.1951 14.099 18.1021V17.1901H13.1871C13.0943 17.1901 13.0189 17.1231 13.0189 17.0399L13.0191 16.1401Z" fill="#333333"/>
<path d="M10.5003 12.1752C13.0799 12.1752 15.1709 8.29629 15.1709 5.71686C15.1709 3.13785 13.0799 1.04688 10.5003 1.04688C7.92105 1.04688 5.83008 3.13785 5.83008 5.71686C5.83008 8.29629 7.92105 12.1752 10.5003 12.1752Z" fill="#333333"/>
</svg>
