<svg width="22" height="22" viewBox="0 0 22 22" fill="none" xmlns="http://www.w3.org/2000/svg">
<path d="M17.4167 9.16634H18.3333C18.5764 9.16634 18.8096 9.26292 18.9815 9.43483C19.1534 9.60674 19.25 9.83989 19.25 10.083V19.2497C19.25 19.4928 19.1534 19.7259 18.9815 19.8979C18.8096 20.0698 18.5764 20.1663 18.3333 20.1663H3.66667C3.42355 20.1663 3.19039 20.0698 3.01849 19.8979C2.84658 19.7259 2.75 19.4928 2.75 19.2497V10.083C2.75 9.83989 2.84658 9.60674 3.01849 9.43483C3.19039 9.26292 3.42355 9.16634 3.66667 9.16634H4.58333V8.24967C4.58333 7.40703 4.74931 6.57263 5.07177 5.79412C5.39424 5.01562 5.86689 4.30825 6.46273 3.71241C7.05857 3.11656 7.76594 2.64392 8.54445 2.32145C9.32295 1.99898 10.1574 1.83301 11 1.83301C11.8426 1.83301 12.677 1.99898 13.4556 2.32145C14.2341 2.64392 14.9414 3.11656 15.5373 3.71241C16.1331 4.30825 16.6058 5.01562 16.9282 5.79412C17.2507 6.57263 17.4167 7.40703 17.4167 8.24967V9.16634ZM4.58333 10.9997V18.333H17.4167V10.9997H4.58333ZM10.0833 12.833H11.9167V16.4997H10.0833V12.833ZM15.5833 9.16634V8.24967C15.5833 7.0341 15.1004 5.86831 14.2409 5.00877C13.3814 4.14923 12.2156 3.66634 11 3.66634C9.78442 3.66634 8.61864 4.14923 7.75909 5.00877C6.89955 5.86831 6.41667 7.0341 6.41667 8.24967V9.16634H15.5833Z" fill="#9F9F9F"/>
</svg>
