<svg width="23" height="23" viewBox="0 0 23 23" fill="none" xmlns="http://www.w3.org/2000/svg">
<path d="M19.1673 21.083H17.2507V19.1663C17.2507 18.4038 16.9478 17.6726 16.4086 17.1334C15.8694 16.5942 15.1381 16.2913 14.3757 16.2913H8.62565C7.86315 16.2913 7.13189 16.5942 6.59272 17.1334C6.05355 17.6726 5.75065 18.4038 5.75065 19.1663V21.083H3.83398V19.1663C3.83398 17.8955 4.33882 16.6767 5.23743 15.7781C6.13604 14.8795 7.35482 14.3747 8.62565 14.3747H14.3757C15.6465 14.3747 16.8653 14.8795 17.7639 15.7781C18.6625 16.6767 19.1673 17.8955 19.1673 19.1663V21.083ZM11.5007 12.458C10.7456 12.458 9.99784 12.3093 9.30022 12.0203C8.6026 11.7313 7.96872 11.3078 7.43479 10.7739C6.90085 10.2399 6.47731 9.60606 6.18834 8.90844C5.89938 8.21082 5.75065 7.46311 5.75065 6.70801C5.75065 5.95291 5.89938 5.2052 6.18834 4.50758C6.47731 3.80996 6.90085 3.17608 7.43479 2.64214C7.96872 2.10821 8.6026 1.68466 9.30022 1.3957C9.99784 1.10674 10.7456 0.958008 11.5007 0.958008C13.0256 0.958008 14.4882 1.56381 15.5665 2.64214C16.6448 3.72048 17.2507 5.18301 17.2507 6.70801C17.2507 8.233 16.6448 9.69554 15.5665 10.7739C14.4882 11.8522 13.0256 12.458 11.5007 12.458ZM11.5007 10.5413C12.5173 10.5413 13.4923 10.1375 14.2112 9.41858C14.9301 8.69969 15.334 7.72467 15.334 6.70801C15.334 5.69134 14.9301 4.71632 14.2112 3.99743C13.4923 3.27854 12.5173 2.87467 11.5007 2.87467C10.484 2.87467 9.50896 3.27854 8.79007 3.99743C8.07119 4.71632 7.66732 5.69134 7.66732 6.70801C7.66732 7.72467 8.07119 8.69969 8.79007 9.41858C9.50896 10.1375 10.484 10.5413 11.5007 10.5413Z" fill="#9F9F9F"/>
</svg>
