<svg width="81" height="81" viewBox="0 0 81 81" fill="none" xmlns="http://www.w3.org/2000/svg">
<circle cx="40.0469" cy="40.5" r="40" fill="#E6FAFB"/>
<g clipPath="url(#clip0_3008_484)">
<path d="M47.0964 21.5859V24.9193H33.763V21.5859H30.4297V24.9193H28.763C26.9214 24.9193 25.4464 26.4109 25.4464 28.2526L25.4297 51.5859C25.4297 53.4276 26.9214 54.9193 28.763 54.9193H52.0964C53.938 54.9193 55.4297 53.4276 55.4297 51.5859V28.2526C55.4297 26.4109 53.938 24.9193 52.0964 24.9193H50.4297V21.5859H47.0964ZM52.0964 51.5859H28.763V33.2526H52.0964V51.5859Z" fill="#08C6DE"/>
<path d="M46.5782 36.0716C46.3968 35.872 46.1031 35.872 45.9217 36.0716L37.8333 44.9742L33.7926 40.5268C33.6112 40.3272 33.3175 40.3272 33.1361 40.5268C32.9546 40.7265 32.9546 41.0498 33.1361 41.2495L37.5048 46.058C37.5955 46.1578 37.7144 46.2076 37.8333 46.2076C37.9521 46.2076 38.071 46.1578 38.1617 46.058L46.5782 36.7943C46.7596 36.5946 46.7596 36.2713 46.5782 36.0716Z" fill="#08C6DE"/>
</g>
<defs>
<clipPath id="clip0_3008_484">
<rect width="40" height="40" fill="white" transform="translate(20.4277 19.9219)"/>
</clipPath>
</defs>
</svg>
