<svg width="71" height="70" viewBox="0 0 71 70" fill="none" xmlns="http://www.w3.org/2000/svg">
<circle cx="35.1641" cy="35" r="35" fill="#FFB72D"/>
<g clipPath="url(#clip0_3139_1179)">
<path d="M45.4375 29.25H39.1875V24.5625C39.1875 24.3553 39.1052 24.1566 38.9587 24.0101C38.8122 23.8636 38.6135 23.7812 38.4062 23.7812H30.5938C30.3865 23.7812 30.1878 23.8636 30.0413 24.0101C29.8948 24.1566 29.8125 24.3553 29.8125 24.5625V29.25H23.5625C23.3553 29.25 23.1566 29.3323 23.0101 29.4788C22.8636 29.6253 22.7812 29.824 22.7812 30.0312V34.7188C22.7812 34.926 22.8636 35.1247 23.0101 35.2712C23.1566 35.4177 23.3553 35.5 23.5625 35.5H25.9062V46.4375C25.9062 46.6447 25.9886 46.8434 26.1351 46.9899C26.2816 47.1364 26.4803 47.2188 26.6875 47.2188H42.3125C42.5197 47.2188 42.7184 47.1364 42.8649 46.9899C43.0114 46.8434 43.0938 46.6447 43.0938 46.4375V35.5H45.4375C45.6447 35.5 45.8434 35.4177 45.9899 35.2712C46.1364 35.1247 46.2188 34.926 46.2188 34.7188V30.0312C46.2188 29.824 46.1364 29.6253 45.9899 29.4788C45.8434 29.3323 45.6447 29.25 45.4375 29.25ZM39.1875 45.6562H37.625V40.9688H35.2812V45.6562H33.7188V40.9688H31.375V45.6562H29.8125V40.1875C29.8125 39.9803 29.8948 39.7816 30.0413 39.6351C30.1878 39.4886 30.3865 39.4062 30.5938 39.4062H38.4062C38.6135 39.4062 38.8122 39.4886 38.9587 39.6351C39.1052 39.7816 39.1875 39.9803 39.1875 40.1875V45.6562ZM32.9375 27.6875H33.7188V26.9062C33.7188 26.699 33.8011 26.5003 33.9476 26.3538C34.0941 26.2073 34.2928 26.125 34.5 26.125C34.7072 26.125 34.9059 26.2073 35.0524 26.3538C35.1989 26.5003 35.2812 26.699 35.2812 26.9062V27.6875H36.0625C36.2697 27.6875 36.4684 27.7698 36.6149 27.9163C36.7614 28.0628 36.8438 28.2615 36.8438 28.4688C36.8438 28.676 36.7614 28.8747 36.6149 29.0212C36.4684 29.1677 36.2697 29.25 36.0625 29.25H35.2812V30.0312C35.2812 30.2385 35.1989 30.4372 35.0524 30.5837C34.9059 30.7302 34.7072 30.8125 34.5 30.8125C34.2928 30.8125 34.0941 30.7302 33.9476 30.5837C33.8011 30.4372 33.7188 30.2385 33.7188 30.0312V29.25H32.9375C32.7303 29.25 32.5316 29.1677 32.3851 29.0212C32.2386 28.8747 32.1562 28.676 32.1562 28.4688C32.1562 28.2615 32.2386 28.0628 32.3851 27.9163C32.5316 27.7698 32.7303 27.6875 32.9375 27.6875Z" fill="white"/>
</g>
<defs>
<clipPath id="clip0_3139_1179">
<rect width="25" height="25" fill="white" transform="translate(22 23)"/>
</clipPath>
</defs>
</svg>
