<svg width="71" height="70" viewBox="0 0 71 70" fill="none" xmlns="http://www.w3.org/2000/svg">
<circle cx="35.1641" cy="35" r="35" fill="#4BB8F9"/>
<path d="M42.4406 34.9994C42.2206 34.9994 41.9906 34.9294 41.7706 34.8794C41.3251 34.7812 40.8873 34.6509 40.4606 34.4894C39.9967 34.3206 39.4867 34.3294 39.0289 34.514C38.5711 34.6986 38.1977 35.046 37.9806 35.4894L37.7606 35.9394C36.7866 35.3976 35.8916 34.7246 35.1006 33.9394C34.3154 33.1484 33.6424 32.2534 33.1006 31.2794L33.5206 30.9994C33.964 30.7823 34.3114 30.4089 34.496 29.9511C34.6806 29.4932 34.6894 28.9833 34.5206 28.5194C34.3618 28.0918 34.2315 27.6542 34.1306 27.2094C34.0806 26.9894 34.0406 26.7594 34.0106 26.5294C33.8892 25.825 33.5202 25.1871 32.9702 24.7306C32.4202 24.2741 31.7253 24.029 31.0106 24.0394H28.0106C27.5796 24.0353 27.1528 24.1242 26.7593 24.2999C26.3658 24.4756 26.0147 24.7341 25.73 25.0577C25.4453 25.3812 25.2337 25.7624 25.1096 26.1751C24.9854 26.5878 24.9517 27.0224 25.0106 27.4494C25.5433 31.6388 27.4566 35.5313 30.4482 38.512C33.4399 41.4928 37.3393 43.3919 41.5306 43.9094H41.9106C42.648 43.9105 43.36 43.6399 43.9106 43.1494C44.227 42.8664 44.4797 42.5196 44.6521 42.1317C44.8244 41.7438 44.9126 41.3238 44.9106 40.8994V37.8994C44.8983 37.2048 44.6454 36.5359 44.1949 36.007C43.7445 35.4782 43.1244 35.122 42.4406 34.9994ZM42.9406 40.9994C42.9404 41.1414 42.91 41.2817 42.8514 41.411C42.7927 41.5403 42.7073 41.6557 42.6006 41.7494C42.4889 41.8459 42.3582 41.9179 42.217 41.961C42.0758 42.004 41.9271 42.0171 41.7806 41.9994C38.0355 41.5192 34.5568 39.8059 31.8933 37.1297C29.2298 34.4535 27.533 30.9667 27.0706 27.2194C27.0547 27.0729 27.0686 26.9247 27.1116 26.7838C27.1546 26.6428 27.2257 26.5121 27.3206 26.3994C27.4143 26.2927 27.5297 26.2072 27.659 26.1486C27.7883 26.09 27.9286 26.0596 28.0706 26.0594H31.0706C31.3031 26.0542 31.5302 26.1303 31.7127 26.2745C31.8953 26.4186 32.0218 26.6219 32.0706 26.8494C32.1106 27.1227 32.1606 27.3927 32.2206 27.6594C32.3361 28.1865 32.4898 28.7046 32.6806 29.2094L31.2806 29.8594C31.1609 29.9143 31.0532 29.9923 30.9637 30.089C30.8743 30.1856 30.8048 30.299 30.7593 30.4226C30.7137 30.5462 30.6931 30.6775 30.6984 30.8091C30.7038 30.9407 30.7351 31.0699 30.7906 31.1894C32.2298 34.2721 34.7078 36.7502 37.7906 38.1894C38.0341 38.2894 38.3071 38.2894 38.5506 38.1894C38.6753 38.1448 38.7899 38.0758 38.8878 37.9866C38.9856 37.8973 39.0648 37.7895 39.1206 37.6694L39.7406 36.2694C40.2576 36.4543 40.7852 36.6079 41.3206 36.7294C41.5873 36.7894 41.8573 36.8394 42.1306 36.8794C42.358 36.9282 42.5613 37.0547 42.7055 37.2372C42.8497 37.4198 42.9258 37.6468 42.9206 37.8794L42.9406 40.9994Z" fill="white"/>
</svg>
