<svg width="71" height="70" viewBox="0 0 71 70" fill="none" xmlns="http://www.w3.org/2000/svg">
<circle cx="35.166" cy="35" r="35" fill="#EAF4FD"/>
<g clipPath="url(#clip0_3008_458)">
<path d="M42.4577 35.0026H35.166V42.2943H42.4577V35.0026ZM40.9993 18.9609V21.8776H29.3327V18.9609H26.416V21.8776H24.9577C23.3462 21.8776 22.0556 23.1828 22.0556 24.7943L22.041 45.2109C22.041 46.8224 23.3462 48.1276 24.9577 48.1276H45.3743C46.9858 48.1276 48.291 46.8224 48.291 45.2109V24.7943C48.291 23.1828 46.9858 21.8776 45.3743 21.8776H43.916V18.9609H40.9993ZM45.3743 45.2109H24.9577V29.1693H45.3743V45.2109Z" fill="#1E7BAE"/>
</g>
<defs>
<clipPath id="clip0_3008_458">
<rect width="35" height="35" fill="white" transform="translate(17.666 17.5)"/>
</clipPath>
</defs>
</svg>
