<svg width="71" height="70" viewBox="0 0 71 70" fill="none" xmlns="http://www.w3.org/2000/svg">
<circle cx="35.1641" cy="35" r="35" fill="#9188FF"/>
<g clipPath="url(#clip0_3139_1164)">
<path d="M42.4557 35.0026H35.1641V42.2943H42.4557V35.0026ZM40.9974 18.9609V21.8776H29.3307V18.9609H26.4141V21.8776H24.9557C23.3443 21.8776 22.0536 23.1828 22.0536 24.7943L22.0391 45.2109C22.0391 46.8224 23.3443 48.1276 24.9557 48.1276H45.3724C46.9839 48.1276 48.2891 46.8224 48.2891 45.2109V24.7943C48.2891 23.1828 46.9839 21.8776 45.3724 21.8776H43.9141V18.9609H40.9974ZM45.3724 45.2109H24.9557V29.1693H45.3724V45.2109Z" fill="white"/>
</g>
<defs>
<clipPath id="clip0_3139_1164">
<rect width="35" height="35" fill="white" transform="translate(17.6641 17.5)"/>
</clipPath>
</defs>
</svg>
